<svg xmlns="http://www.w3.org/2000/svg" xmlns:xlink="http://www.w3.org/1999/xlink" width="64" zoomAndPan="magnify" viewBox="0 0 48 48" height="64" preserveAspectRatio="xMidYMid meet" version="1.0"><defs><clipPath id="d989fd06ee"><path d="M 3.898438 5 L 16 5 L 16 42 L 3.898438 42 Z M 3.898438 5 " clip-rule="nonzero"/></clipPath><clipPath id="6aaa8a0e2e"><path d="M 15.757812 4.054688 L 31.988281 4.054688 L 31.988281 42.992188 L 15.757812 42.992188 Z M 15.757812 4.054688 " clip-rule="nonzero"/></clipPath><clipPath id="db0e30d44e"><path d="M 30.929688 5.574219 L 42.835938 5.574219 L 42.835938 41.476562 L 30.929688 41.476562 Z M 30.929688 5.574219 " clip-rule="nonzero"/></clipPath><clipPath id="21cf83dfbf"><path d="M 5.191406 4.703125 L 41.925781 4.703125 L 41.925781 41.4375 L 5.191406 41.4375 Z M 5.191406 4.703125 " clip-rule="nonzero"/></clipPath></defs><g clip-path="url(#d989fd06ee)"><path fill="#46bc50" d="M 12.960938 7.0625 C 11.757812 7.824219 10.632812 8.726562 9.601562 9.757812 C 5.921875 13.433594 3.898438 18.324219 3.898438 23.523438 C 3.898438 28.722656 5.921875 33.613281 9.601562 37.289062 C 10.632812 38.320312 11.757812 39.222656 12.960938 39.988281 C 13.863281 40.558594 14.804688 41.046875 15.777344 41.460938 L 15.777344 5.585938 C 14.804688 6 13.863281 6.492188 12.960938 7.0625 " fill-opacity="1" fill-rule="nonzero"/></g><g clip-path="url(#6aaa8a0e2e)"><path fill="#ffffff" d="M 23.367188 4.054688 C 20.71875 4.054688 18.148438 4.585938 15.777344 5.585938 L 15.777344 41.460938 C 18.148438 42.464844 20.71875 42.992188 23.367188 42.992188 C 26.402344 42.992188 29.332031 42.300781 31.976562 40.992188 L 31.976562 6.054688 C 29.332031 4.75 26.402344 4.054688 23.367188 4.054688 " fill-opacity="1" fill-rule="nonzero"/></g><g clip-path="url(#db0e30d44e)"><path fill="#ee2332" d="M 30.953125 41.460938 C 31.4375 41.222656 32.9375 40.496094 33.402344 40.214844 C 34.746094 39.40625 35.996094 38.425781 37.132812 37.289062 C 40.8125 33.613281 42.835938 28.722656 42.835938 23.523438 C 42.835938 18.324219 40.8125 13.433594 37.132812 9.757812 C 35.996094 8.621094 34.746094 7.644531 33.402344 6.832031 C 32.9375 6.550781 31.4375 5.824219 30.953125 5.585938 L 30.953125 41.460938 " fill-opacity="1" fill-rule="nonzero"/></g><g clip-path="url(#21cf83dfbf)"><path fill="#ffd085" d="M 23.796875 10.457031 L 23.3125 10.457031 L 23.3125 4.703125 L 23.796875 4.703125 Z M 21.820312 10.570312 L 20.917969 4.886719 L 20.445312 4.964844 L 21.347656 10.648438 Z M 19.886719 11 L 18.109375 5.523438 L 17.65625 5.671875 L 19.429688 11.148438 Z M 18.050781 11.726562 L 15.433594 6.601562 L 15.003906 6.820312 L 17.621094 11.945312 Z M 16.335938 12.722656 L 12.957031 8.070312 L 12.574219 8.347656 L 15.949219 13.003906 Z M 14.8125 13.980469 L 10.738281 9.914062 L 10.394531 10.257812 L 14.464844 14.324219 Z M 13.492188 15.460938 L 8.839844 12.074219 L 8.558594 12.460938 L 13.210938 15.84375 Z M 12.425781 17.128906 L 7.300781 14.515625 L 7.082031 14.945312 L 12.214844 17.558594 Z M 11.636719 18.941406 L 6.164062 17.164062 L 6.015625 17.621094 L 11.488281 19.394531 Z M 11.140625 20.855469 L 5.453125 19.957031 L 5.375 20.429688 L 11.0625 21.328125 Z M 10.945312 22.832031 L 5.191406 22.832031 L 5.191406 23.3125 L 10.945312 23.3125 Z M 11.140625 25.28125 L 11.0625 24.808594 L 5.375 25.710938 L 5.453125 26.183594 Z M 11.636719 27.199219 L 11.488281 26.742188 L 6.015625 28.519531 L 6.164062 28.972656 Z M 12.425781 29.007812 L 12.207031 28.578125 L 7.082031 31.195312 L 7.300781 31.625 Z M 13.492188 30.679688 L 13.210938 30.292969 L 8.558594 33.679688 L 8.839844 34.0625 Z M 14.8125 32.15625 L 14.472656 31.816406 L 10.40625 35.882812 L 10.746094 36.222656 Z M 16.335938 33.417969 L 15.949219 33.136719 L 12.566406 37.789062 L 12.949219 38.070312 Z M 18.050781 34.414062 L 17.621094 34.195312 L 15.003906 39.320312 L 15.433594 39.539062 Z M 19.886719 35.140625 L 19.429688 34.992188 L 17.65625 40.464844 L 18.109375 40.613281 Z M 21.820312 35.566406 L 21.347656 35.488281 L 20.445312 41.175781 L 20.917969 41.253906 Z M 23.796875 35.679688 L 23.3125 35.679688 L 23.3125 41.4375 L 23.796875 41.4375 Z M 26.671875 41.175781 L 25.773438 35.488281 L 25.300781 35.566406 L 26.199219 41.253906 Z M 29.464844 40.464844 L 27.6875 34.992188 L 27.234375 35.140625 L 29.007812 40.613281 Z M 32.113281 39.328125 L 29.496094 34.203125 L 29.070312 34.421875 L 31.683594 39.546875 Z M 34.554688 37.789062 L 31.167969 33.136719 L 30.785156 33.417969 L 34.167969 38.070312 Z M 36.714844 35.890625 L 32.648438 31.816406 L 32.304688 32.15625 L 36.371094 36.222656 Z M 38.558594 33.671875 L 33.90625 30.285156 L 33.625 30.671875 L 38.28125 34.054688 Z M 40.039062 31.195312 L 34.902344 28.578125 L 34.683594 29.007812 L 39.808594 31.625 Z M 41.105469 28.519531 L 35.628906 26.742188 L 35.480469 27.199219 L 40.957031 28.972656 Z M 41.734375 25.703125 L 36.050781 24.800781 L 35.96875 25.273438 L 41.65625 26.175781 Z M 41.925781 22.832031 L 36.171875 22.832031 L 36.171875 23.3125 L 41.925781 23.3125 Z M 41.734375 20.4375 L 41.65625 19.964844 L 35.96875 20.867188 L 36.050781 21.335938 Z M 41.105469 17.621094 L 40.957031 17.164062 L 35.480469 18.941406 L 35.628906 19.394531 Z M 40.039062 14.945312 L 39.820312 14.515625 L 34.691406 17.128906 L 34.910156 17.558594 Z M 38.558594 12.46875 L 38.28125 12.082031 L 33.625 15.460938 L 33.90625 15.84375 Z M 36.714844 10.246094 L 36.371094 9.90625 L 32.304688 13.980469 L 32.648438 14.324219 Z M 34.554688 8.347656 L 34.167969 8.070312 L 30.785156 12.722656 L 31.167969 13.003906 Z M 32.113281 6.808594 L 31.683594 6.589844 L 29.070312 11.726562 L 29.496094 11.945312 Z M 29.464844 5.671875 L 29.007812 5.523438 L 27.234375 11 L 27.6875 11.148438 Z M 26.671875 4.964844 L 26.199219 4.886719 L 25.300781 10.570312 L 25.773438 10.648438 Z M 26.671875 4.964844 " fill-opacity="1" fill-rule="nonzero"/></g></svg>